<svg width="24" height="24" xmlns="http://www.w3.org/2000/svg" fill-rule="evenodd" fill="#9CCB39" clip-rule="evenodd"><path d="M23.623 21.679c-.493-.518-1.418-.716-2.01-1.158-.764-.571-.41-1.989.67-3.241-1.332-1.14-2.861-2.807-3.928-4.2l-5.026 4.703c1.144.989 3 3.005 3.928 4.199 1.329-1.037 2.842-1.265 3.366-.412.379.615.537 1.503 1.011 2.004.27.283.631.426.995.426.647 0 1.371-.509 1.371-1.372 0-.34-.125-.682-.377-.949zm-13.122-9.649v11.703l-10.501-5.602v-11.568l10.501 5.467zm1 11.703v-6.142s3.179 2.898 4.098 3.955l-4.098 2.187zm11.442-.772c-.182.173-.473.166-.645-.019-.176-.182-.166-.472.016-.645.184-.175.471-.168.645.017.174.181.168.471-.016.647zm-2.975-5.907c-.443.423-1.478-1.072-1.951-.621-.469.447 1.212 1.67.7 2.157-.395.377-1.135-.649-1.536-.266-.187.178-.005.541.101.845.182.525-.212.877-.789.27-.573-.606-.883-.936-1.53-1.565l3.314-3.158c.467.578.934 1.06 1.553 1.715.252.263.259.508.138.623zm2.033-10.426v9.035c-.852-.826-3.566-4.125-3.566-4.125l.004-3.076 3.562-1.834zm-16.889-3.416l10.609 5.524-4.719 2.428-10.473-5.453 4.583-2.499zm16.362 2.563l-4.664 2.4-10.641-5.54 4.831-2.635 10.474 5.775zm.527.291zm-22-.067l-.001.003v-.002l.001-.001z"/></svg>